<?xml version="1.0" encoding="iso-8859-1"?>
<!-- Uploaded to: SVG Repo, www.svgrepo.com, Generator: SVG Repo Mixer Tools -->
<svg height="800px" width="800px" version="1.1" id="Capa_1" xmlns="http://www.w3.org/2000/svg" xmlns:xlink="http://www.w3.org/1999/xlink" 
	 viewBox="0 0 437.813 437.813" xml:space="preserve">
<g>
	<path style="fill:#010002;" d="M361.624,107.167H8.129c-4.495,0-8.129,3.642-8.129,8.129v207.222c0,4.487,3.633,8.129,8.129,8.129
		h353.487c4.495,0,8.129-3.642,8.129-8.129v-40.488c0-2.284-0.959-4.463-2.65-6.007c-9.673-8.836-17.038-19.915-21.256-32.043
		c-1.479-4.235-6.096-6.478-10.348-4.999c-4.235,1.479-6.478,6.113-4.999,10.348c4.715,13.542,12.64,25.979,23.004,36.197v28.865
		H16.257V123.424h337.23v28.881c-10.835,10.673-18.964,23.735-23.589,37.969c-1.39,4.268,0.943,8.852,5.219,10.242
		c4.308,1.382,8.86-0.951,10.25-5.219c4.129-12.697,11.648-24.28,21.736-33.498c1.691-1.536,2.65-3.715,2.65-5.999v-40.497
		C369.753,110.809,366.111,107.167,361.624,107.167z"/>
	<path style="fill:#010002;" d="M408.827,152.614h-20.858c-4.495,0-8.129,3.642-8.129,8.129c0,4.487,3.633,8.129,8.129,8.129h20.858
		c7.015,0,12.729,7.291,12.729,16.257v67.565c0,8.966-6.137,16.257-13.68,16.257h-21.817c-4.495,0-8.129,3.642-8.129,8.129
		c0,4.487,3.633,8.129,8.129,8.129h21.817c16.501,0,29.938-14.583,29.938-32.514v-67.565
		C437.821,167.197,424.816,152.614,408.827,152.614z"/>
	<path style="fill:#010002;" d="M42.919,144.12c-4.495,0-8.129,3.642-8.129,8.129v133.309c0,4.487,3.633,8.129,8.129,8.129h264.057
		c4.495,0,8.129-3.642,8.129-8.129V152.248c0-4.487-3.633-8.129-8.129-8.129H42.919z M298.847,277.436h-247.8V160.385h247.8V277.436
		z"/>
</g>
</svg>