<?xml version="1.0" encoding="iso-8859-1"?>
<!-- Uploaded to: SVG Repo, www.svgrepo.com, Generator: SVG Repo Mixer Tools -->
<svg fill="#000000" version="1.1" id="Layer_1" xmlns="http://www.w3.org/2000/svg" xmlns:xlink="http://www.w3.org/1999/xlink" 
	 viewBox="0 0 285.938 285.938" xml:space="preserve">
<g>
	<g>
		<g>
			<path d="M142.969,0c-51.694,0-93.75,42.056-93.75,93.75v16.477c0,14.48,3.422,28.978,9.895,41.925l39.567,79.139
				c2.231,4.458,6.563,7.313,11.47,7.697v46.95h9.375v-46.875h46.875v46.875h9.375v-46.95c4.908-0.38,9.239-3.234,11.47-7.697
				l39.567-79.139c6.483-12.947,9.905-27.445,9.905-41.925V93.75C236.719,42.056,194.664,0,142.969,0z M227.344,110.227
				c0,13.031-3.08,26.081-8.906,37.734L178.87,227.1c-0.806,1.594-2.409,2.588-4.195,2.588h-63.413
				c-1.786,0-3.394-0.994-4.195-2.592L67.5,147.956c-5.827-11.653-8.906-24.703-8.906-37.734V93.75
				c0-46.523,37.852-84.375,84.375-84.375s84.375,37.852,84.375,84.375V110.227z"/>
			<path d="M142.969,18.75c-41.353,0-75,33.647-75,75v4.688h150V93.75C217.969,52.397,184.323,18.75,142.969,18.75z M77.508,89.063
				c2.414-34.003,30.853-60.938,65.461-60.938s63.047,26.934,65.461,60.938H77.508z"/>
			<path d="M171.094,164.063h28.125v-56.25h-28.125V164.063z M180.469,117.188h9.375v37.5h-9.375V117.188z"/>
			<path d="M161.719,107.813h-75v56.25h75V107.813z M152.344,154.688h-56.25v-37.5h56.25V154.688z"/>
			<rect x="105.469" y="182.813" width="70.313" height="9.375"/>
			<rect x="105.469" y="201.563" width="51.563" height="9.375"/>
			<rect x="166.406" y="201.563" width="9.375" height="9.375"/>
		</g>
	</g>
</g>
</svg>